<svg xmlns="http://www.w3.org/2000/svg" xmlns:xlink="http://www.w3.org/1999/xlink" width="300" zoomAndPan="magnify" viewBox="0 0 224.87999 89.999999" height="120" preserveAspectRatio="xMidYMid meet" version="1.0"><defs><g/><clipPath id="6ca41bcfc9"><path d="M 222 53 L 224.761719 53 L 224.761719 61 L 222 61 Z M 222 53 " clip-rule="nonzero"/></clipPath></defs><g fill="#ffffff" fill-opacity="1"><g transform="translate(20.404787, 48.437763)"><g><path d="M 8.242188 -26.546875 L 1.980469 -26.546875 L 1.980469 0 L 8.242188 0 Z M 8.242188 -26.546875 "/></g></g></g><g fill="#ff5757" fill-opacity="1"><g transform="translate(33.429086, 48.437763)"><g><path d="M 8.242188 -20.289062 L 22.269531 -20.289062 L 22.269531 -6.261719 L 8.242188 -6.261719 Z M 1.980469 0 L 28.53125 0 L 28.53125 -26.546875 L 1.980469 -26.546875 Z M 1.980469 0 "/></g></g></g><g fill="#ffffff" fill-opacity="1"><g transform="translate(66.739433, 48.437763)"><g><path d="M 22.269531 -26.546875 L 22.269531 -12.242188 L 8.242188 -22.191406 L 8.242188 -26.546875 L 1.980469 -26.546875 L 1.980469 0 L 8.242188 0 L 8.242188 -14.265625 L 22.269531 -4.320312 L 22.269531 0 L 28.253906 0 L 28.53125 0.199219 L 28.53125 -26.546875 Z M 22.269531 -26.546875 "/></g></g></g><g fill="#ffffff" fill-opacity="1"><g transform="translate(100.04793, 48.437763)"><g><path d="M 1.980469 -6.261719 L 1.980469 0 L 28.53125 0 L 28.53125 -16.40625 L 8.242188 -16.40625 L 8.242188 -20.289062 L 28.53125 -20.289062 L 28.53125 -26.546875 L 1.980469 -26.546875 L 1.980469 -10.144531 L 22.269531 -10.144531 L 22.269531 -6.261719 Z M 1.980469 -6.261719 "/></g></g></g><g fill="#ffffff" fill-opacity="1"><g transform="translate(133.356427, 48.437763)"><g><path d="M 28.53125 -20.289062 L 28.53125 -26.546875 L 1.980469 -26.546875 L 1.980469 0 L 28.53125 0 L 28.53125 -6.261719 L 8.242188 -6.261719 L 8.242188 -10.144531 L 28.53125 -10.144531 L 28.53125 -16.40625 L 8.242188 -16.40625 L 8.242188 -20.289062 Z M 28.53125 -20.289062 "/></g></g></g><g fill="#ffffff" fill-opacity="1"><g transform="translate(166.664927, 48.437763)"><g><path d="M 1.980469 -26.546875 L 1.980469 0 L 28.53125 0 L 28.53125 -6.261719 L 8.242188 -6.261719 L 8.242188 -20.289062 L 28.53125 -20.289062 L 28.53125 -26.546875 Z M 1.980469 -26.546875 "/></g></g></g><g fill="#ffffff" fill-opacity="1"><g transform="translate(0.172186, 60.628579)"><g><path d="M 0.578125 0 L 0.578125 -6.09375 L 4.734375 -6.09375 L 5.65625 -5.171875 L 5.65625 -3 L 4.953125 -2.296875 L 5.890625 0 L 4.328125 0 L 3.53125 -2.078125 L 2.125 -2.078125 L 2.125 0 Z M 2.125 -3.25 L 3.859375 -3.25 L 4.15625 -3.53125 L 4.15625 -4.625 L 3.859375 -4.921875 L 2.125 -4.921875 Z M 2.125 -3.25 "/></g></g></g><g fill="#ffffff" fill-opacity="1"><g transform="translate(11.581011, 60.628579)"><g><path d="M 0.578125 0 L 0.578125 -6.09375 L 5.203125 -6.09375 L 5.203125 -4.828125 L 2.125 -4.828125 L 2.125 -3.71875 L 4.90625 -3.71875 L 4.90625 -2.546875 L 2.125 -2.546875 L 2.125 -1.25 L 5.203125 -1.25 L 5.203125 0 Z M 0.578125 0 "/></g></g></g><g fill="#ffffff" fill-opacity="1"><g transform="translate(22.477348, 60.628579)"><g><path d="M 0 0 L 1.78125 -6.09375 L 4.296875 -6.09375 L 6.078125 0 L 4.453125 0 L 4.140625 -1.21875 L 1.9375 -1.21875 L 1.640625 0 Z M 2.25 -2.40625 L 3.828125 -2.40625 L 3.1875 -4.921875 L 2.890625 -4.921875 Z M 2.25 -2.40625 "/></g></g></g><g fill="#ffffff" fill-opacity="1"><g transform="translate(33.836579, 60.628579)"><g><path d="M 0.578125 0 L 0.578125 -6.09375 L 4.546875 -6.09375 L 5.8125 -4.828125 L 5.8125 -1.265625 L 4.546875 0 Z M 2.125 -1.171875 L 3.890625 -1.171875 L 4.328125 -1.609375 L 4.328125 -4.484375 L 3.890625 -4.921875 L 2.125 -4.921875 Z M 2.125 -1.171875 "/></g></g></g><g fill="#ffffff" fill-opacity="1"><g transform="translate(45.261935, 60.628579)"><g><path d="M 2.03125 0 L 2.03125 -2.125 L 1.421875 -2.65625 L 0 -6.09375 L 1.78125 -6.09375 L 2.65625 -3.296875 L 2.953125 -3.296875 L 3.828125 -6.09375 L 5.609375 -6.09375 L 4.1875 -2.65625 L 3.578125 -2.125 L 3.578125 0 Z M 2.03125 0 "/></g></g></g><g fill="#ffffff" fill-opacity="1"><g transform="translate(56.141742, 60.628579)"><g/></g></g><g fill="#ffffff" fill-opacity="1"><g transform="translate(63.450671, 60.628579)"><g><path d="M 1.21875 -0.828125 L 0.453125 -1.609375 L 1.890625 -3.046875 L 0.453125 -4.484375 L 1.21875 -5.265625 L 3.4375 -3.046875 Z M 1.21875 -0.828125 "/></g></g></g><g fill="#ffffff" fill-opacity="1"><g transform="translate(72.619432, 60.628579)"><g/></g></g><g fill="#ffffff" fill-opacity="1"><g transform="translate(79.928364, 60.628579)"><g><path d="M 0.609375 0 L 0.609375 -1.234375 L 3.78125 -1.234375 L 4.078125 -1.53125 L 4.078125 -2.203125 L 3.78125 -2.5 L 1.296875 -2.5 L 0.375 -3.421875 L 0.375 -5.171875 L 1.296875 -6.09375 L 5.28125 -6.09375 L 5.28125 -4.859375 L 2.1875 -4.859375 L 1.890625 -4.5625 L 1.890625 -4.03125 L 2.1875 -3.734375 L 4.671875 -3.734375 L 5.59375 -2.8125 L 5.59375 -0.921875 L 4.671875 0 Z M 0.609375 0 "/></g></g></g><g fill="#ffffff" fill-opacity="1"><g transform="translate(91.171874, 60.628579)"><g><path d="M 0.578125 0 L 0.578125 -6.09375 L 5.203125 -6.09375 L 5.203125 -4.828125 L 2.125 -4.828125 L 2.125 -3.71875 L 4.90625 -3.71875 L 4.90625 -2.546875 L 2.125 -2.546875 L 2.125 -1.25 L 5.203125 -1.25 L 5.203125 0 Z M 0.578125 0 "/></g></g></g><g fill="#ffffff" fill-opacity="1"><g transform="translate(102.068214, 60.628579)"><g><path d="M 1.75 0 L 1.75 -4.828125 L 0.046875 -4.828125 L 0.046875 -6.09375 L 5 -6.09375 L 5 -4.828125 L 3.296875 -4.828125 L 3.296875 0 Z M 1.75 0 "/></g></g></g><g fill="#ffffff" fill-opacity="1"><g transform="translate(112.37767, 60.628579)"><g/></g></g><g fill="#ffffff" fill-opacity="1"><g transform="translate(119.686596, 60.628579)"><g><path d="M 1.21875 -0.828125 L 0.453125 -1.609375 L 1.890625 -3.046875 L 0.453125 -4.484375 L 1.21875 -5.265625 L 3.4375 -3.046875 Z M 1.21875 -0.828125 "/></g></g></g><g fill="#ffffff" fill-opacity="1"><g transform="translate(128.855357, 60.628579)"><g><path d="M 1.21875 -0.828125 L 0.453125 -1.609375 L 1.890625 -3.046875 L 0.453125 -4.484375 L 1.21875 -5.265625 L 3.4375 -3.046875 Z M 1.21875 -0.828125 "/></g></g></g><g fill="#ffffff" fill-opacity="1"><g transform="translate(142.761868, 60.024981)"><g><path d="M 0.578125 0 L 0.578125 -6.09375 L 4.734375 -6.09375 L 5.65625 -5.171875 L 5.65625 -3 L 4.953125 -2.296875 L 5.890625 0 L 4.328125 0 L 3.53125 -2.078125 L 2.125 -2.078125 L 2.125 0 Z M 2.125 -3.25 L 3.859375 -3.25 L 4.15625 -3.53125 L 4.15625 -4.625 L 3.859375 -4.921875 L 2.125 -4.921875 Z M 2.125 -3.25 "/></g></g></g><g fill="#ffffff" fill-opacity="1"><g transform="translate(154.172931, 60.024981)"><g><path d="M 0.578125 0 L 0.578125 -6.09375 L 5.203125 -6.09375 L 5.203125 -4.828125 L 2.125 -4.828125 L 2.125 -3.71875 L 4.90625 -3.71875 L 4.90625 -2.546875 L 2.125 -2.546875 L 2.125 -1.25 L 5.203125 -1.25 L 5.203125 0 Z M 0.578125 0 "/></g></g></g><g fill="#ffffff" fill-opacity="1"><g transform="translate(165.071323, 60.024981)"><g><path d="M 0.609375 0 L 0.609375 -1.234375 L 3.78125 -1.234375 L 4.078125 -1.53125 L 4.078125 -2.203125 L 3.78125 -2.5 L 1.296875 -2.5 L 0.375 -3.421875 L 0.375 -5.171875 L 1.296875 -6.09375 L 5.28125 -6.09375 L 5.28125 -4.859375 L 2.1875 -4.859375 L 1.890625 -4.5625 L 1.890625 -4.03125 L 2.1875 -3.734375 L 4.671875 -3.734375 L 5.59375 -2.8125 L 5.59375 -0.921875 L 4.671875 0 Z M 0.609375 0 "/></g></g></g><g fill="#ffffff" fill-opacity="1"><g transform="translate(176.317007, 60.024981)"><g><path d="M 0.578125 0 L 0.578125 -6.09375 L 4.65625 -6.09375 L 5.578125 -5.171875 L 5.578125 -2.828125 L 4.65625 -1.90625 L 2.125 -1.90625 L 2.125 0 Z M 2.125 -3.078125 L 3.78125 -3.078125 L 4.078125 -3.375 L 4.078125 -4.625 L 3.78125 -4.921875 L 2.125 -4.921875 Z M 2.125 -3.078125 "/></g></g></g><g fill="#ff5757" fill-opacity="1"><g transform="translate(187.293083, 60.024981)"><g><path d="M 1.328125 0 L 0.40625 -0.921875 L 0.40625 -5.171875 L 1.328125 -6.09375 L 4.90625 -6.09375 L 5.8125 -5.171875 L 5.8125 -0.921875 L 4.90625 0 Z M 2.25 -1.171875 L 4 -1.171875 L 4.28125 -1.46875 L 4.28125 -4.625 L 3.96875 -4.921875 L 2.25 -4.921875 L 1.953125 -4.625 L 1.953125 -1.46875 Z M 2.25 -1.171875 "/></g></g></g><g fill="#ffffff" fill-opacity="1"><g transform="translate(198.813489, 60.024981)"><g><path d="M 0.578125 0 L 0.578125 -6.09375 L 2.265625 -6.09375 L 4.3125 -2.4375 L 4.3125 -6.09375 L 5.75 -6.09375 L 5.75 0 L 4.3125 0 L 2.3125 -3.578125 L 2.015625 -3.578125 L 2.015625 0 Z M 0.578125 0 "/></g></g></g><g fill="#ffffff" fill-opacity="1"><g transform="translate(210.423001, 60.024981)"><g><path d="M 0.578125 0 L 0.578125 -6.09375 L 4.546875 -6.09375 L 5.8125 -4.828125 L 5.8125 -1.265625 L 4.546875 0 Z M 2.125 -1.171875 L 3.890625 -1.171875 L 4.328125 -1.609375 L 4.328125 -4.484375 L 3.890625 -4.921875 L 2.125 -4.921875 Z M 2.125 -1.171875 "/></g></g></g><g clip-path="url(#6ca41bcfc9)"><g fill="#ffffff" fill-opacity="1"><g transform="translate(221.850603, 60.024981)"><g><path d="M 0.71875 -1.78125 L 0.53125 -6.09375 L 2.1875 -6.09375 L 2 -1.78125 Z M 0.65625 0 L 0.65625 -1.296875 L 2.0625 -1.296875 L 2.0625 0 Z M 0.65625 0 "/></g></g></g></g></svg>